<?xml version="1.0" encoding="utf-8"?>
<!-- Generator: Adobe Illustrator 15.0.0, SVG Export Plug-In . SVG Version: 6.00 Build 0)  -->
<!DOCTYPE svg PUBLIC "-//W3C//DTD SVG 1.1//EN" "http://www.w3.org/Graphics/SVG/1.1/DTD/svg11.dtd">
<svg version="1.1"
	 id="svg10" xmlns:dc="http://purl.org/dc/elements/1.1/" xmlns:cc="http://creativecommons.org/ns#" xmlns:rdf="http://www.w3.org/1999/02/22-rdf-syntax-ns#" xmlns:svg="http://www.w3.org/2000/svg"
	 xmlns="http://www.w3.org/2000/svg" xmlns:xlink="http://www.w3.org/1999/xlink" x="0px" y="0px" width="1200px" height="600px"
	 viewBox="0 0 1200 600" enable-background="new 0 0 1200 600" xml:space="preserve">
<path id="path2" fill="#CC0000" d="M0,0h1200v600H0V0z"/>
<path id="path11728" fill="#FFD700" d="M592.001,55.27l-17.867,54.987h-57.815l46.774,33.982l-17.867,54.985l46.774-33.984
	l46.774,33.984l-17.866-54.985l46.774-33.982h-57.816L592.001,55.27z M592.001,83.917l11.435,35.191h37.002l-29.937,21.75
	l11.436,35.191l-29.936-21.75l-29.936,21.75l11.435-35.191l-29.937-21.75h37.003L592.001,83.917z"/>
<g id="g2900" transform="matrix(0.98931879,0,0,0.98673811,3.8297658,3.7659398)">
	<path id="rect4165-6" fill="#FFD700" d="M465.392,343.992l40.029,40.304l37.747-37.486
		c57.42,61.582,117.642,120.946,174.618,182.767c8.562,8.62,22.489,8.67,31.109,0.109c8.622-8.563,8.67-22.491,0.111-31.113
		c-61.157-57.697-122.499-115.866-183.672-173.775l50.856-50.504l-70.751-9.795L465.392,343.992z"/>
	<path id="path4179-3" fill="#FFD700" d="M594.521,213.488c32.928,18.545,57.929,45.16,72.676,72.984
		c14.949,28.199,21.518,57.638,21.653,81.178c0.276,48.26-39.126,87.386-87.39,87.386c-25.753,0-48.904-11.134-64.898-28.86
		l-8.846,7.449c-1.507-0.578-3.106-0.875-4.721-0.875c-3.882,0-7.567,1.709-10.076,4.67c-6.31,0.825-11.592,5.19-13.592,11.232
		c-6.653,13.345-18.324,23.806-32.449,28.599c-0.135,0.048-0.254,0.106-0.372,0.167c-6.531,2.391-13.078,6.714-18.652,12.313
		c-11.017,11.112-16.4,25.328-13.369,35.307c-0.3,0.866-0.454,1.778-0.456,2.692c0,4.609,3.734,8.343,8.341,8.343
		c1.153-0.005,2.293-0.248,3.348-0.714c9.96,2.248,23.489-3.28,34.068-13.92c5.997-6.049,10.49-13.205,12.697-20.225
		c4.916-14.053,15.484-25.501,28.908-31.943c0.32-0.152,0.579-0.311,0.81-0.472c4.501-2.154,7.793-6.214,8.966-11.066
		c20.589,24.286,51.464,39.795,85.982,40.608c63.308,1.489,110.629-45.111,112.818-112.122c1.102-33.725-11.948-77.21-41.68-112.874
		c-22.724-27.256-56.044-49.884-93.768-59.858H594.521z"/>
</g>
</svg>
