<?xml version="1.0" encoding="utf-8"?>
<!-- Generator: Adobe Illustrator 15.0.0, SVG Export Plug-In . SVG Version: 6.00 Build 0)  -->
<!DOCTYPE svg PUBLIC "-//W3C//DTD SVG 1.1//EN" "http://www.w3.org/Graphics/SVG/1.1/DTD/svg11.dtd">
<svg version="1.1"
	 id="svg10" xmlns:dc="http://purl.org/dc/elements/1.1/" xmlns:cc="http://creativecommons.org/ns#" xmlns:rdf="http://www.w3.org/1999/02/22-rdf-syntax-ns#" xmlns:svg="http://www.w3.org/2000/svg"
	 xmlns="http://www.w3.org/2000/svg" xmlns:xlink="http://www.w3.org/1999/xlink" x="0px" y="0px" width="1200px" height="600px"
	 viewBox="0 0 1200 600" enable-background="new 0 0 1200 600" xml:space="preserve">
<path id="path2" fill="#CC0000" d="M0,0h1200v600H0V0z"/>
<path id="path11728" fill="#FFD700" d="M593.001,39.654l-19.11,58.814h-61.839l50.03,36.348l-19.11,58.813l50.03-36.349
	l50.03,36.349l-19.11-58.813l50.03-36.348H612.11L593.001,39.654z M593.001,70.295l12.23,37.641h39.577l-32.02,23.264l12.231,37.64
	l-32.02-23.264l-32.019,23.264l12.231-37.64l-32.021-23.264h39.579L593.001,70.295z"/>
<g id="g2900" transform="matrix(0.98931879,0,0,0.98673811,3.8297658,3.7659398)">
	<path id="rect4165-6" fill="#FFD700" d="M457.416,348.476l42.814,43.11l40.374-40.096
		c61.417,65.869,125.83,129.364,186.771,195.487c9.158,9.221,24.055,9.273,33.274,0.117c9.223-9.159,9.273-24.056,0.117-33.278
		c-65.414-61.713-131.024-123.93-196.455-185.87l54.396-54.019l-75.675-10.477L457.416,348.476z"/>
	<path id="path4179-3" fill="#FFD700" d="M595.532,208.889c35.22,19.836,61.962,48.304,77.734,78.063
		c15.989,30.162,23.015,61.65,23.16,86.828c0.295,51.619-41.849,93.468-93.472,93.468c-27.545,0-52.308-11.909-69.415-30.868
		l-9.462,7.968c-1.612-0.619-3.322-0.936-5.049-0.936c-4.153,0-8.094,1.828-10.778,4.995c-6.749,0.884-12.399,5.551-14.539,12.014
		c-7.116,14.274-19.599,25.464-34.707,30.59c-0.144,0.05-0.272,0.113-0.398,0.178c-6.985,2.558-13.988,7.182-19.95,13.17
		c-11.784,11.886-17.542,27.091-14.3,37.764c-0.32,0.926-0.485,1.902-0.487,2.88c0,4.93,3.994,8.923,8.921,8.923
		c1.234-0.005,2.452-0.265,3.581-0.763c10.653,2.404,25.124-3.508,36.439-14.889c6.415-6.47,11.22-14.125,13.581-21.633
		c5.258-15.03,16.562-27.277,30.92-34.167c0.343-0.162,0.619-0.332,0.867-0.505c4.814-2.303,8.336-6.647,9.59-11.836
		c22.022,25.976,55.046,42.565,91.966,43.434c67.714,1.592,118.329-48.251,120.671-119.925
		c1.179-36.072-12.779-82.583-44.581-120.73c-24.306-29.153-59.944-53.356-100.294-64.024H595.532z"/>
</g>
</svg>
